<svg width="192" height="48" viewBox="0 0 192 48" fill="none" xmlns="http://www.w3.org/2000/svg">
<g id="LENSE" clip-path="url(#clip0_7_191)">
<path id="Vector" d="M0.90625 1.75H11.4062V47H0.90625V1.75ZM11.2812 37.125H29.8125V47H11.2812V37.125ZM36.5312 1.75H47.0312V47H36.5312V1.75ZM46.9062 37.125H66.5938V47H46.9062V37.125ZM46.9062 19.5625H64.3438V28.4375H46.9062V19.5625ZM46.9062 1.75H66.0938V11.625H46.9062V1.75ZM73.5938 1.75H84.0938V47H73.5938V1.75ZM84.125 17.7188L84.5938 18.3125H83.9688V1.75H85.4062L103.875 30.9688L103.25 30.3438H103.875V47H102.5L84.125 17.7188ZM103.75 1.75H114.25V47H103.75V1.75ZM137.656 47.875C134.531 47.875 131.458 47.3021 128.438 46.1562C125.438 44.9896 122.74 43.3333 120.344 41.1875L126.781 33.4688C128.448 34.9688 130.188 36.0938 132 36.8438C133.812 37.5938 135.698 37.9688 137.656 37.9688C138.99 37.9688 140.146 37.7917 141.125 37.4375C142.104 37.0625 142.854 36.5417 143.375 35.875C143.896 35.2083 144.156 34.4271 144.156 33.5312C144.156 32.7812 143.958 32.1458 143.562 31.625C143.167 31.0833 142.49 30.6042 141.531 30.1875C140.573 29.75 139.24 29.3021 137.531 28.8438L135.438 28.3125C131.042 27.1667 127.698 25.4583 125.406 23.1875C123.115 20.9167 121.969 18.1667 121.969 14.9375C121.969 12.2708 122.698 9.86458 124.156 7.71875C125.615 5.57292 127.625 3.89583 130.188 2.6875C132.75 1.47917 135.625 0.875 138.812 0.875C141.708 0.875 144.5 1.40625 147.188 2.46875C149.896 3.53125 152.375 5.05208 154.625 7.03125L148.375 14.8125C146.812 13.4375 145.25 12.4271 143.688 11.7812C142.125 11.1146 140.5 10.7812 138.812 10.7812C137.625 10.7812 136.552 10.9583 135.594 11.3125C134.635 11.6667 133.885 12.1458 133.344 12.75C132.802 13.3542 132.531 14.0521 132.531 14.8438C132.531 15.4688 132.708 16 133.062 16.4375C133.438 16.875 134.021 17.2812 134.812 17.6562C135.625 18.0312 136.698 18.3958 138.031 18.75L140.094 19.2812C143.427 20.1354 146.167 21.2188 148.312 22.5312C150.479 23.8229 152.083 25.3542 153.125 27.125C154.167 28.8958 154.688 30.9479 154.688 33.2812C154.688 36.0938 153.958 38.6042 152.5 40.8125C151.062 43.0208 149.052 44.75 146.469 46C143.906 47.25 140.969 47.875 137.656 47.875ZM160.969 1.75H171.469V47H160.969V1.75ZM171.344 37.125H191.031V47H171.344V37.125ZM171.344 19.5625H188.781V28.4375H171.344V19.5625ZM171.344 1.75H190.531V11.625H171.344V1.75Z" fill="#272727"/>
</g>
<defs>
<clipPath id="clip0_7_191">
<rect width="192" height="48" fill="white"/>
</clipPath>
</defs>
</svg>
