<svg width="551" height="167" viewBox="0 0 551 167" fill="none" xmlns="http://www.w3.org/2000/svg">
<path d="M163.5 61.7188C159.875 61.7188 157.75 59.5312 157.75 55.75V21.9062C157.75 18.0938 159.875 15.9062 163.5 15.9062H177.062C188.312 15.9062 194.375 21.4688 194.375 30.7812C194.375 36.0938 191.938 40.8438 187.344 43.1562L192.875 52.5625C193.875 54.2188 194.094 55.1562 194.094 56.5C194.094 59.5312 191.719 61.7188 188.375 61.7188C185.594 61.7188 184.406 60.75 182.469 57.25L175.781 45.2188H169.219V55.75C169.219 59.5312 167.125 61.7188 163.5 61.7188ZM169.219 37.375H175.938C180.156 37.375 182.656 34.9062 182.656 31C182.656 27.1562 180 24.5625 175.906 24.5625H169.219V37.375ZM215.219 61.8125C204.312 61.8125 197.844 55.2188 197.844 44.1562C197.844 33.125 204.406 26.1562 214.781 26.1562C224.906 26.1562 231.562 32.8438 231.562 42.0312C231.562 44.8438 229.969 46.4062 227.094 46.4062H208.594V47.0312C208.594 51.1562 211.312 53.9688 215.312 53.9688C218.344 53.9688 220.438 53 222.906 50.5C224.062 49.4062 224.969 49.0312 226.344 49.0312C228.594 49.0312 230.5 50.4688 230.5 52.9062C230.5 53.75 230.25 54.5938 229.75 55.4062C227.5 59.4062 222 61.8125 215.219 61.8125ZM208.75 40.0938H221.125C220.938 36.4062 218.469 34.0312 215 34.0312C211.562 34.0312 209.031 36.5312 208.75 40.0938ZM241.625 61.7188C238.375 61.7188 236.062 59.8438 236.062 55.9688V20.9375C236.062 17.0625 238.375 15.1875 241.625 15.1875C244.844 15.1875 247.156 17.0625 247.156 20.9375V55.9688C247.156 59.8438 244.844 61.7188 241.625 61.7188ZM258.312 23.5C255.094 23.5 252.625 21.1562 252.625 18.0938C252.625 15 255.094 12.6562 258.312 12.6562C261.531 12.6562 263.969 15 263.969 18.0938C263.969 21.1562 261.531 23.5 258.312 23.5ZM258.312 61.7188C254.812 61.7188 252.781 59.625 252.781 55.9688V32C252.781 28.375 254.812 26.25 258.312 26.25C261.781 26.25 263.844 28.375 263.844 32V55.9688C263.844 59.625 261.781 61.7188 258.312 61.7188ZM279.406 61.5C273.062 61.5 267.969 57.3125 267.969 51.1562C267.969 44.7812 272.875 41.2188 281.688 40.6875L289.656 40.2188V38.2812C289.656 35.5625 287.719 34.0625 284.812 34.0625C282.438 34.0625 281.125 34.75 279 37.0625C277.719 38.3438 276.312 38.9688 274.625 38.9688C271.969 38.9688 270.094 37.3125 270.094 34.9375C270.094 34.1562 270.188 33.5938 270.438 32.9375C271.875 28.7188 277.562 26.1562 285.375 26.1562C294.469 26.1562 300.5 30.8125 300.5 37.6562V56.1562C300.5 59.9375 298.219 61.7188 295.062 61.7188C292.125 61.7188 290.031 60.1875 289.719 56.9375V56.1562H289.5C287.656 59.5938 283.5 61.5 279.406 61.5ZM283.344 53.875C286.719 53.875 289.656 51.8125 289.656 48.7812V46.4375L283.469 46.8438C280.562 47.0625 278.906 48.4062 278.906 50.4062C278.906 52.5625 280.688 53.875 283.344 53.875ZM311.5 61.7188C308.281 61.7188 306 59.875 306 56.0312V20.9375C306 17.0625 308.312 15.1875 311.562 15.1875C314.781 15.1875 317.094 17.0625 317.094 20.9375V33H317.312C319.031 28.9062 322.75 26.4688 327.594 26.4688C336.188 26.4688 341.188 32.875 341.188 44C341.188 55.0938 336.219 61.5 327.688 61.5C322.719 61.5 318.969 59.0938 317.25 55.1562H317.031V56.0312C317.031 59.875 314.75 61.7188 311.5 61.7188ZM323.469 52.8438C327.375 52.8438 329.844 49.4062 329.844 44C329.844 38.5938 327.344 35.125 323.469 35.125C319.594 35.125 317.062 38.625 317.031 44C317.062 49.4375 319.594 52.8438 323.469 52.8438ZM351.25 61.7188C348 61.7188 345.688 59.8438 345.688 55.9688V20.9375C345.688 17.0625 348 15.1875 351.25 15.1875C354.469 15.1875 356.781 17.0625 356.781 20.9375V55.9688C356.781 59.8438 354.469 61.7188 351.25 61.7188ZM378.656 61.8125C367.75 61.8125 361.281 55.2188 361.281 44.1562C361.281 33.125 367.844 26.1562 378.219 26.1562C388.344 26.1562 395 32.8438 395 42.0312C395 44.8438 393.406 46.4062 390.531 46.4062H372.031V47.0312C372.031 51.1562 374.75 53.9688 378.75 53.9688C381.781 53.9688 383.875 53 386.344 50.5C387.5 49.4062 388.406 49.0312 389.781 49.0312C392.031 49.0312 393.938 50.4688 393.938 52.9062C393.938 53.75 393.688 54.5938 393.188 55.4062C390.938 59.4062 385.438 61.8125 378.656 61.8125ZM372.188 40.0938H384.562C384.375 36.4062 381.906 34.0312 378.438 34.0312C375 34.0312 372.469 36.5312 372.188 40.0938ZM148.312 137C144.688 137 142.562 134.812 142.562 131V97.9062C142.562 94.0938 144.688 91.9062 148.312 91.9062H160.875C174.5 91.9062 182.5 99.8125 182.5 114.188C182.5 128.594 174.469 137 160.875 137H148.312ZM154.031 127.75H159.375C166.844 127.75 170.844 123.219 170.844 114.219C170.844 105.75 166.625 101.156 159.375 101.156H154.031V127.75ZM197.219 137.5C190.875 137.5 185.781 133.312 185.781 127.156C185.781 120.781 190.688 117.219 199.5 116.688L207.469 116.219V114.281C207.469 111.562 205.531 110.062 202.625 110.062C200.25 110.062 198.938 110.75 196.812 113.062C195.531 114.344 194.125 114.969 192.438 114.969C189.781 114.969 187.906 113.312 187.906 110.938C187.906 110.156 188 109.594 188.25 108.938C189.688 104.719 195.375 102.156 203.188 102.156C212.281 102.156 218.312 106.812 218.312 113.656V132.156C218.312 135.938 216.031 137.719 212.875 137.719C209.938 137.719 207.844 136.188 207.531 132.938V132.156H207.312C205.469 135.594 201.312 137.5 197.219 137.5ZM201.156 129.875C204.531 129.875 207.469 127.812 207.469 124.781V122.438L201.281 122.844C198.375 123.062 196.719 124.406 196.719 126.406C196.719 128.562 198.5 129.875 201.156 129.875ZM226.406 127.875V111.156H225.188C222.719 111.156 221.094 109.531 221.094 107.062C221.094 104.562 222.719 102.969 225.188 102.969H226.406V100.25C226.406 96.6562 228.438 94.5 231.969 94.5C235.469 94.5 237.5 96.6562 237.5 100.25V102.969H240.188C242.656 102.969 244.281 104.594 244.281 107.062C244.281 109.531 242.656 111.156 240.188 111.156H237.5V125.438C237.5 127.562 238.219 128.406 239.781 128.562L240.469 128.656C242.938 128.938 244.375 130.031 244.375 132.594C244.375 135.812 240.875 137.438 236.594 137.438H236.312C229.75 137.438 226.406 134.188 226.406 127.875ZM258.156 137.5C251.812 137.5 246.719 133.312 246.719 127.156C246.719 120.781 251.625 117.219 260.438 116.688L268.406 116.219V114.281C268.406 111.562 266.469 110.062 263.562 110.062C261.188 110.062 259.875 110.75 257.75 113.062C256.469 114.344 255.062 114.969 253.375 114.969C250.719 114.969 248.844 113.312 248.844 110.938C248.844 110.156 248.938 109.594 249.188 108.938C250.625 104.719 256.312 102.156 264.125 102.156C273.219 102.156 279.25 106.812 279.25 113.656V132.156C279.25 135.938 276.969 137.719 273.812 137.719C270.875 137.719 268.781 136.188 268.469 132.938V132.156H268.25C266.406 135.594 262.25 137.5 258.156 137.5ZM262.094 129.875C265.469 129.875 268.406 127.812 268.406 124.781V122.438L262.219 122.844C259.312 123.062 257.656 124.406 257.656 126.406C257.656 128.562 259.438 129.875 262.094 129.875ZM303.5 137.688C299.875 137.688 297.75 135.531 297.75 131.719V97.9062C297.75 94.0938 299.875 91.9062 303.5 91.9062H317.281C326.969 91.9062 333.531 98.1875 333.531 107.875C333.531 117.5 326.625 123.781 316.594 123.781H309.219V131.719C309.219 135.531 307.125 137.688 303.5 137.688ZM309.219 115.156H314.188C319.062 115.156 321.938 112.625 321.938 107.906C321.938 103.219 319.062 100.688 314.25 100.688H309.219V115.156ZM343.438 137.719C340.031 137.719 337.875 135.719 337.875 131.969V107.781C337.875 104.219 340.062 102.25 343.281 102.25C346.375 102.25 348.5 104.219 348.5 107.812V109.5H348.719C349.562 104.906 352.062 102.469 355.469 102.469C356.719 102.469 357.719 102.75 358.438 103.344C359.531 104.156 360.094 105.562 360.094 107.562C360.094 109.312 359.562 110.625 358.531 111.531C357.5 112.469 355.938 112.938 353.875 113.031C350.062 113.125 348.969 114.812 348.969 118.688V131.969C348.969 135.719 346.812 137.719 343.438 137.719ZM378.562 137.812C367.844 137.812 361.156 131.312 361.156 119.969C361.156 108.844 368 102.156 378.562 102.156C389.188 102.156 395.969 108.812 395.969 119.969C395.969 131.344 389.281 137.812 378.562 137.812ZM378.562 129.688C382.344 129.688 384.75 126.219 384.75 120C384.75 113.875 382.344 110.281 378.562 110.281C374.812 110.281 372.406 113.875 372.406 120C372.406 126.219 374.75 129.688 378.562 129.688ZM414.781 137.719C410.344 137.719 408 136 406.594 132.031L398.719 110.562C398.375 109.562 398.094 108.375 398.094 107.188C398.094 104.188 400.531 102.25 403.656 102.25C406.406 102.25 408.219 103.688 408.969 106.75L414.656 127.719H414.875L420.5 106.594C421.219 103.625 423.094 102.25 425.75 102.25C428.75 102.25 431.094 104.375 431.094 107.125C431.094 108.156 430.781 109.344 430.469 110.281L422.594 132.031C421.219 135.969 418.906 137.719 414.781 137.719ZM440.5 99.5C437.281 99.5 434.812 97.1562 434.812 94.0938C434.812 91 437.281 88.6562 440.5 88.6562C443.719 88.6562 446.156 91 446.156 94.0938C446.156 97.1562 443.719 99.5 440.5 99.5ZM440.5 137.719C437 137.719 434.969 135.625 434.969 131.969V108C434.969 104.375 437 102.25 440.5 102.25C443.969 102.25 446.031 104.375 446.031 108V131.969C446.031 135.625 443.969 137.719 440.5 137.719ZM463.969 137.5C455.5 137.5 450.406 130.906 450.406 119.906C450.406 109.031 455.594 102.469 464.094 102.469C469.031 102.469 472.781 105.156 474.281 108.969H474.5V96.9375C474.5 93.0625 476.781 91.1875 480.031 91.1875C483.281 91.1875 485.562 93.0625 485.562 96.9375V132.031C485.562 135.875 483.281 137.719 480.031 137.719C476.812 137.719 474.5 135.875 474.5 132.031V131.062H474.281C472.969 134.75 469.125 137.5 463.969 137.5ZM468.125 128.844C472.125 128.844 474.531 125.531 474.531 120C474.531 114.531 472.094 111.125 468.125 111.125C464.156 111.125 461.75 114.531 461.75 120C461.75 125.5 464.125 128.844 468.125 128.844ZM507.344 137.812C496.438 137.812 489.969 131.219 489.969 120.156C489.969 109.125 496.531 102.156 506.906 102.156C517.031 102.156 523.688 108.844 523.688 118.031C523.688 120.844 522.094 122.406 519.219 122.406H500.719V123.031C500.719 127.156 503.438 129.969 507.438 129.969C510.469 129.969 512.562 129 515.031 126.5C516.188 125.406 517.094 125.031 518.469 125.031C520.719 125.031 522.625 126.469 522.625 128.906C522.625 129.75 522.375 130.594 521.875 131.406C519.625 135.406 514.125 137.812 507.344 137.812ZM500.875 116.094H513.25C513.062 112.406 510.594 110.031 507.125 110.031C503.688 110.031 501.156 112.531 500.875 116.094ZM533.562 137.719C530.156 137.719 528 135.719 528 131.969V107.781C528 104.219 530.188 102.25 533.406 102.25C536.5 102.25 538.625 104.219 538.625 107.812V109.5H538.844C539.688 104.906 542.188 102.469 545.594 102.469C546.844 102.469 547.844 102.75 548.562 103.344C549.656 104.156 550.219 105.562 550.219 107.562C550.219 109.312 549.688 110.625 548.656 111.531C547.625 112.469 546.062 112.938 544 113.031C540.188 113.125 539.094 114.812 539.094 118.688V131.969C539.094 135.719 536.938 137.719 533.562 137.719Z" fill="white"/>
<path d="M9.625 137C6 137 3.875 134.812 3.875 131V97.9062C3.875 94.0938 6 91.9062 9.625 91.9062H30.2812C33.375 91.9062 35.375 93.5938 35.375 96.5312C35.375 99.4688 33.3125 101.156 30.2812 101.156H15.3438V110.125H29.5938C32.375 110.125 34.2188 111.688 34.2188 114.344C34.2188 117 32.4375 118.562 29.5938 118.562H15.3438V127.75H30.2812C33.3125 127.75 35.375 129.438 35.375 132.375C35.375 135.312 33.375 137 30.2812 137H9.625ZM58.6562 137.781C48.875 137.781 42.9688 134.094 41.0938 129.438C40.6875 128.5 40.5 127.531 40.5 126.594C40.5 123.719 42.5625 121.781 45.4688 121.781C47.6875 121.781 49.1875 122.562 50.6562 124.812C52.1875 127.625 55.2188 128.812 58.8438 128.812C63.3125 128.812 66.2188 126.812 66.2188 124.062C66.2188 121.562 64.3125 120.281 58.9688 119.25L54.3125 118.375C45.3438 116.688 40.6562 112.281 40.6562 105.406C40.6562 96.7188 48.1875 91.125 58.5625 91.125C67.1875 91.125 73.5 94.4375 75.6875 100.156C76 100.938 76.1562 101.688 76.1562 102.625C76.1562 105.281 74.2188 107.062 71.3438 107.094C68.8438 107.094 67.2812 106.188 65.9375 104C64.4688 101.188 61.9688 100.094 58.6562 100.094C54.5 100.094 52.0625 101.969 52.0625 104.625C52.0625 107 54.0938 108.312 59 109.25L63.625 110.125C73.25 111.969 77.625 115.875 77.625 122.969C77.625 132.031 70.5312 137.781 58.6562 137.781ZM103.969 137.781C90.0625 137.781 81.6875 129.188 81.6875 114.375C81.6875 99.75 90.0625 91.125 103.688 91.125C112.531 91.125 119.312 95.0938 121.906 100.219C122.5 101.375 122.719 102.344 122.719 103.375C122.719 106.281 120.719 108.25 117.781 108.25C115.469 108.25 113.75 107.344 112.344 105.281C110.188 101.875 107.5 100.344 103.719 100.344C97.2188 100.344 93.375 105.438 93.375 114.219C93.375 123.156 97.625 128.562 104.219 128.562C109.406 128.562 113.031 125.5 113.344 120.969L113.375 120.281H108.906C106.281 120.281 104.531 118.875 104.531 116.344C104.531 113.812 106.25 112.406 108.906 112.406H118.719C122.344 112.406 124.438 114.562 124.438 118.375V118.688C124.438 129.781 117.094 137.781 103.969 137.781Z" fill="#50D890"/>
<path d="M8 150C38.4453 150 68.8905 150 99.3358 150C104.866 150 110.396 150 115.926 150C116.981 150 111.083 151.653 109 152C97 154 64 156.5 42.5 159.5C33.7927 160.715 18 162.5 10 163" stroke="#50D890" stroke-width="8" stroke-linecap="round"/>
</svg>
